<?xml version="1.0" encoding="utf-8"?>
<svg version="1.1" id="Icon_Set" xmlns="http://www.w3.org/2000/svg" xmlns:xlink="http://www.w3.org/1999/xlink" x="0px" y="0px"
	 viewBox="0 0 512 512" style="enable-background:new 0 0 512 512;" xml:space="preserve">
<style type="text/css">
	.st0{fill:#FFFFFF;}
	.st1{fill:#7DAC51;}
	.st2{fill:#5B7C3;}
	.st3{fill:#463218;}
	.st4{fill:#FEFE71;}
	.st5{fill:#D6CD1E;}
	.st6{fill:#E56823;}
	.st7{fill:#FE8E46;}
	.st8{fill:none;stroke:#FFFFFF;stroke-width:10;stroke-miterlimit:10;}
	.st9{fill:none;stroke:#463218;stroke-width:14;stroke-linecap:round;stroke-linejoin:round;stroke-miterlimit:10;}
	.st10{fill:#FE8D47;}
	.st11{fill:#E56724;}
</style>
<g id="HONEY">
	<g>
		<g>
			<polygon class="st4" points="283.3,103.3 228.8,103.3 201.5,150.5 228.8,197.8 283.3,197.8 310.6,150.5 			"/>
		</g>
	</g>
	<g>
		<g>
			<polygon class="st7" points="201.5,150.5 146.9,150.5 119.6,197.8 146.9,245.1 201.5,245.1 228.8,197.8 			"/>
		</g>
	</g>
	<g>
		<g>
			<polygon class="st6" points="158.4,173.4 213,173.4 227.9,199.2 228.8,197.8 201.5,150.5 146.9,150.5 119.6,197.8 131.9,219.2 
							"/>
		</g>
	</g>
	<g>
		<g>
			<polygon class="st5" points="240.3,126.1 294.8,126.1 309.8,152 310.6,150.5 283.3,103.3 228.8,103.3 201.5,150.5 213.8,171.9 
							"/>
		</g>
	</g>
	<g>
		<g>
			<polygon class="st4" points="283.3,197.8 228.8,197.8 201.5,245.1 228.8,292.3 283.3,292.3 310.6,245.1 			"/>
		</g>
	</g>
	<g>
		<g>
			<polygon class="st7" points="365.1,150.5 310.5,150.5 283.2,197.8 310.5,245.1 365.1,245.1 392.4,197.8 			"/>
		</g>
	</g>
	<g>
		<g>
			<polygon class="st5" points="240.3,220.6 294.8,220.6 309.8,246.5 310.6,245.1 283.3,197.8 228.8,197.8 201.5,245.1 213.8,266.4 
							"/>
		</g>
	</g>
	<g>
		<g>
			<polygon class="st6" points="322,173.4 376.6,173.4 391.6,199.2 392.4,197.8 365.1,150.5 310.5,150.5 283.2,197.8 295.6,219.2 
							"/>
		</g>
	</g>
	<g>
		<g>
			<polygon class="st4" points="283.3,292.3 228.8,292.3 201.5,339.6 228.8,386.9 283.3,386.9 310.6,339.6 			"/>
		</g>
	</g>
	<g>
		<g>
			<polygon class="st4" points="201.5,245.1 146.9,245.1 119.6,292.3 146.9,339.6 201.5,339.6 228.8,292.3 			"/>
		</g>
	</g>
	<g>
		<g>
			<polygon class="st5" points="158.4,267.9 213,267.9 227.9,293.8 228.8,292.3 201.5,245.1 146.9,245.1 119.6,292.3 131.9,313.7 
							"/>
		</g>
	</g>
	<g>
		<g>
			<polygon class="st5" points="240.3,315.2 294.8,315.2 309.8,341 310.6,339.6 283.3,292.3 228.8,292.3 201.5,339.6 213.8,361 			
				"/>
		</g>
	</g>
	<g>
		<g>
			<path class="st3" d="M201.5,252.1h-54.6c-2.5,0-4.8-1.3-6.1-3.5l-27.3-47.3c-1.2-2.2-1.2-4.8,0-7l27.3-47.3
				c1.3-2.2,3.6-3.5,6.1-3.5h54.6c2.5,0,4.8,1.3,6.1,3.5l27.3,47.3c1.2,2.2,1.2,4.8,0,7l-27.3,47.3
				C206.3,250.7,204,252.1,201.5,252.1z M150.9,238.1h46.5l23.2-40.3l-23.2-40.3h-46.5l-23.2,40.3L150.9,238.1z"/>
		</g>
	</g>
	<g>
		<g>
			<path class="st3" d="M283.3,299.3h-54.6c-2.5,0-4.8-1.3-6.1-3.5l-27.3-47.3c-1.2-2.2-1.2-4.8,0-7l27.3-47.3
				c1.3-2.2,3.6-3.5,6.1-3.5h54.6c2.5,0,4.8,1.3,6.1,3.5l27.3,47.3c1.2,2.2,1.2,4.8,0,7l-27.3,47.3
				C288.1,298,285.8,299.3,283.3,299.3z M232.8,285.3h46.5l23.2-40.3l-23.2-40.3h-46.5l-23.2,40.3L232.8,285.3z"/>
		</g>
	</g>
	<g>
		<g>
			<path class="st3" d="M365.1,252.1h-54.6c-2.5,0-4.8-1.3-6.1-3.5l-27.3-47.3c-1.2-2.2-1.2-4.8,0-7l27.3-47.3
				c1.3-2.2,3.6-3.5,6.1-3.5h54.6c2.5,0,4.8,1.3,6.1,3.5l27.3,47.3c1.2,2.2,1.2,4.8,0,7l-27.3,47.3
				C369.9,250.7,367.6,252.1,365.1,252.1z M314.6,238.1h46.5l23.2-40.3l-23.2-40.3h-46.5l-23.2,40.3L314.6,238.1z"/>
		</g>
	</g>
	<g>
		<g>
			<path class="st3" d="M283.3,204.8h-54.6c-2.5,0-4.8-1.3-6.1-3.5L195.4,154c-1.2-2.2-1.2-4.8,0-7l27.3-47.3
				c1.3-2.2,3.6-3.5,6.1-3.5h54.6c2.5,0,4.8,1.3,6.1,3.5l27.3,47.3c1.2,2.2,1.2,4.8,0,7l-27.3,47.3
				C288.1,203.5,285.8,204.8,283.3,204.8z M232.8,190.8h46.5l23.2-40.3l-23.2-40.3h-46.5l-23.2,40.3L232.8,190.8z"/>
		</g>
	</g>
	<g>
		<g>
			<path class="st3" d="M283.3,393.9h-54.6c-2.5,0-4.8-1.3-6.1-3.5l-27.3-47.3c-1.2-2.2-1.2-4.8,0-7l27.3-47.3
				c1.3-2.2,3.6-3.5,6.1-3.5h54.6c2.5,0,4.8,1.3,6.1,3.5l27.3,47.3c1.2,2.2,1.2,4.8,0,7l-27.3,47.3
				C288.1,392.5,285.8,393.9,283.3,393.9z M232.8,379.9h46.5l23.2-40.3l-23.2-40.3h-46.5l-23.2,40.3L232.8,379.9z"/>
		</g>
	</g>
	<g>
		<g>
			<path class="st3" d="M201.5,346.6h-54.6c-2.5,0-4.8-1.3-6.1-3.5l-27.3-47.3c-1.2-2.2-1.2-4.8,0-7l27.3-47.3
				c1.3-2.2,3.6-3.5,6.1-3.5h54.6c2.5,0,4.8,1.3,6.1,3.5l27.3,47.3c1.2,2.2,1.2,4.8,0,7l-27.3,47.3
				C206.3,345.3,204,346.6,201.5,346.6z M150.9,332.6h46.5l23.2-40.3l-23.2-40.3h-46.5l-23.2,40.3L150.9,332.6z"/>
		</g>
	</g>
	<g>
		<g>
			<g>
				<path class="st6" d="M348.3,315c-14.8-14.8-38.9-14.8-53.8,0c-14.8,14.8-14.8,38.9,0,53.8c1.1,1.1,2.2,2.1,3.4,3
					c11.1,9.4,46.6,36.2,68,14.7c21.5-21.5-5.3-57-14.7-68C350.4,317.3,349.3,316.1,348.3,315z"/>
			</g>
		</g>
		<g>
			<g>
				<path class="st4" d="M294.5,315c-14.8,14.8-14.8,38.9,0,53.8c1.1,1.1,2.2,2.1,3.4,3c3.6,3.1,9.8,8,17.3,12.5
					c10.3-4.8,20-11.5,28.5-20c8.5-8.5,15.2-18.2,20-28.5c-4.5-7.5-9.4-13.7-12.5-17.3c-0.9-1.2-1.9-2.3-3-3.4
					C333.4,300.2,309.3,300.2,294.5,315z"/>
			</g>
		</g>
		<g>
			<g>
				<path class="st6" d="M294.5,315c-14.8,14.8-14.8,38.9,0,53.8c0,0,0,0,0,0c12.4-3.5,24.1-10.2,33.8-19.9
					c9.8-9.8,16.4-21.5,19.9-33.8c0,0,0,0,0,0C333.4,300.2,309.3,300.2,294.5,315z"/>
			</g>
		</g>
		<g>
			<g>
				<path class="st4" d="M312.7,333.2c8.2-8.2,13.3-18.2,15.4-28.7c-11.8-2.1-24.4,1.4-33.6,10.5c-9.1,9.1-12.6,21.7-10.5,33.6
					C294.5,346.5,304.5,341.4,312.7,333.2z"/>
			</g>
		</g>
		<g>
			<g>
				<path class="st3" d="M346.3,401.7c-21.7,0-44.4-17.3-52.8-24.4c-1.4-1.1-2.7-2.3-3.9-3.5c-8.5-8.5-13.2-19.8-13.2-31.8
					s4.7-23.3,13.2-31.8c8.5-8.5,19.8-13.2,31.8-13.2c12,0,23.3,4.7,31.8,13.2l0,0l0,0c1.2,1.2,2.4,2.5,3.5,3.9
					c10,11.8,39.9,51.7,14.2,77.4C363.5,398.9,355,401.7,346.3,401.7z M321.4,310.9c-8.3,0-16.1,3.2-21.9,9.1
					c-5.9,5.9-9.1,13.7-9.1,21.9s3.2,16.1,9.1,21.9c0.9,0.9,1.8,1.7,2.8,2.5c0.1,0.1,0.1,0.1,0.2,0.2c9.4,7.9,41.2,32.4,58.6,15.1
					c17.4-17.4-7.1-49.2-15.1-58.6c-0.1-0.1-0.1-0.1-0.2-0.2c-0.8-1-1.6-2-2.5-2.8l0,0C337.4,314.1,329.7,310.9,321.4,310.9z"/>
			</g>
		</g>
		<g>
			<g>
				<path class="st3" d="M384.7,413.2c-1.3,0-2.6-0.4-3.8-1.1l-23.5-14.9c-3.3-2.1-4.2-6.4-2.2-9.7c2.1-3.3,6.4-4.2,9.7-2.2
					c-1.8-3.4-0.6-7.5,2.7-9.4c3.4-1.9,7.6-0.7,9.5,2.7l13.6,24.1c1.6,2.8,1,6.3-1.3,8.5C388.1,412.6,386.4,413.2,384.7,413.2z"/>
			</g>
		</g>
		<g>
			<g>
				<path class="st3" d="M283.9,355.6c-1.4,0-2.8-0.4-4-1.2c-1.6-1.1-2.6-2.7-2.9-4.6c-2.6-14.5,2.1-29.3,12.5-39.7
					c10.4-10.4,25.2-15.1,39.7-12.5c1.9,0.3,3.5,1.4,4.6,2.9c1.1,1.6,1.5,3.5,1.1,5.3c-2.4,12.3-8.4,23.4-17.3,32.3
					c-8.9,8.9-20,14.8-32.3,17.3C284.9,355.6,284.4,355.6,283.9,355.6z M318.9,311c-7.3,0.6-14.2,3.7-19.5,9
					c-5.3,5.3-8.4,12.2-9,19.5c6.4-2.4,12.3-6.2,17.3-11.2C312.7,323.3,316.5,317.5,318.9,311z"/>
			</g>
		</g>
		<g>
			<g>
				<path class="st3" d="M294.5,375.8c-1.8,0-3.5-0.7-4.8-1.9c-0.1-0.1-0.1-0.1-0.2-0.2l0,0c-8.5-8.5-13.2-19.8-13.2-31.8
					s4.7-23.3,13.2-31.8h0c8.5-8.5,19.8-13.2,31.8-13.2c12,0,23.3,4.7,31.8,13.2c0.1,0.1,0.2,0.2,0.3,0.3c1.6,1.8,2.2,4.3,1.5,6.6
					c-4,13.9-11.5,26.6-21.7,36.9c-10.3,10.2-23,17.8-36.9,21.7C295.8,375.7,295.1,375.8,294.5,375.8z M299.4,320
					c-5.9,5.9-9.1,13.7-9.1,21.9c0,6.9,2.2,13.5,6.4,18.8c10-3.5,19.1-9.3,26.7-16.8c7.5-7.5,13.3-16.7,16.8-26.7
					c-5.4-4.1-11.9-6.4-18.8-6.4C313.1,310.9,305.3,314.1,299.4,320L299.4,320z"/>
			</g>
		</g>
		<g>
			<g>
				<path class="st3" d="M315.2,391.3c-1.2,0-2.5-0.3-3.6-1c-7.7-4.6-14.1-9.6-18.2-13.1c-1.4-1.1-2.7-2.3-3.9-3.5
					c-8.5-8.5-13.2-19.8-13.2-31.8s4.7-23.3,13.2-31.8h0c8.5-8.5,19.8-13.2,31.8-13.2c12,0,23.3,4.7,31.8,13.2
					c1.2,1.2,2.4,2.5,3.5,3.9c3.4,4.1,8.4,10.5,13.1,18.2c1.2,2,1.3,4.4,0.3,6.6c-5.3,11.3-12.5,21.6-21.4,30.5
					c-8.9,8.9-19.2,16.1-30.5,21.4C317.3,391.1,316.3,391.3,315.2,391.3z M299.4,320c-5.9,5.9-9.1,13.7-9.1,21.9s3.2,16.1,9.1,21.9
					c0.9,0.9,1.8,1.7,2.8,2.5c0.1,0.1,0.1,0.1,0.2,0.2c3.1,2.6,7.7,6.3,13.2,9.8c8.5-4.4,16.3-10.1,23.2-16.9
					c6.9-6.9,12.6-14.6,17-23.2c-3.6-5.5-7.2-10.1-9.8-13.2c-0.1-0.1-0.1-0.1-0.2-0.2c-0.8-1-1.6-2-2.5-2.8
					c-5.9-5.9-13.6-9.1-21.9-9.1C313.1,310.9,305.3,314.1,299.4,320L299.4,320z"/>
			</g>
		</g>
		<g>
			<g>
				<g>
					<path class="st1" d="M322.5,374.1c-1.2-3.5-3.3-6.7-6-9.5L287,318.3l-12.9,55.3l0,0c-3.5,9.2-1.6,20.1,5.8,27.5
						c10.1,10.1,26.4,10.1,36.5,0C323.8,393.9,325.8,383.3,322.5,374.1L322.5,374.1L322.5,374.1z"/>
				</g>
			</g>
			<g>
				<g>
					<path class="st1" d="M353.6,343c-3.5-1.2-6.7-3.3-9.5-6l-46.3-29.5l55.3-12.9l0,0c9.2-3.5,20.1-1.6,27.5,5.8
						c10.1,10.1,10.1,26.4,0,36.5C373.3,344.3,362.7,346.3,353.6,343L353.6,343L353.6,343z"/>
				</g>
			</g>
		</g>
		<g>
			<g>
				<g>
					<path class="st3" d="M298.2,415.7c-8.4,0-16.8-3.2-23.2-9.6c-9-9-12-22.5-7.6-34.5l12.8-54.9c0.6-2.7,2.9-4.8,5.6-5.3
						c2.8-0.5,5.6,0.8,7.1,3.1l29.1,45.7c3.1,3.3,5.5,7.1,7,11.3c0,0,0,0.1,0,0.1c4.3,11.9,1.3,25.4-7.7,34.4
						C315,412.5,306.6,415.7,298.2,415.7z M290,336.2l-9.1,39.1c-0.1,0.3-0.2,0.6-0.3,0.9c-2.7,6.9-1,14.8,4.3,20.1
						c7.3,7.3,19.3,7.3,26.6,0c5.1-5.1,6.9-12.9,4.4-19.7l6.6-2.4l-6.6,2.4c-0.9-2.6-2.4-4.9-4.4-6.9c-0.4-0.4-0.7-0.8-1-1.2
						L290,336.2z"/>
				</g>
			</g>
			<g>
				<g>
					<path class="st3" d="M362.3,351.5c-3.7,0-7.5-0.6-11.1-1.9c0,0,0,0-0.1,0c-4.3-1.6-8.1-3.9-11.4-7.1L294,313.4
						c-2.4-1.5-3.6-4.3-3.1-7.1c0.5-2.8,2.6-5,5.3-5.6l54.9-12.8c12-4.4,25.5-1.4,34.5,7.6c12.8,12.8,12.8,33.6,0,46.4
						C379.3,348.2,370.9,351.5,362.3,351.5z M356.1,336.5c6.8,2.4,14.5,0.7,19.6-4.4c3.6-3.6,5.5-8.3,5.5-13.3c0-5-2-9.8-5.5-13.3
						c-5.2-5.2-13.1-6.9-20.1-4.3c-0.3,0.1-0.6,0.2-0.9,0.3l-39.1,9.1l32.3,20.5c0.4,0.3,0.8,0.6,1.2,1c2,2,4.3,3.4,6.9,4.4
						C356,336.5,356,336.5,356.1,336.5z"/>
				</g>
			</g>
		</g>
		<g>
			<g>
				
					<ellipse transform="matrix(0.7071 -0.7071 0.7071 0.7071 -128.345 280.7743)" class="st6" cx="274.8" cy="295.3" rx="27.4" ry="27.4"/>
			</g>
		</g>
		<g>
			<g>
				<path class="st3" d="M274.8,329.7c-9.2,0-17.8-3.6-24.3-10.1c-13.4-13.4-13.4-35.3,0-48.7c6.5-6.5,15.1-10.1,24.3-10.1
					s17.8,3.6,24.3,10.1c13.4,13.4,13.4,35.3,0,48.7C292.6,326.2,283.9,329.7,274.8,329.7z M274.8,274.9c-5.5,0-10.6,2.1-14.4,6
					c-8,8-8,20.9,0,28.9c3.9,3.9,9,6,14.4,6s10.6-2.1,14.4-6c8-8,8-20.9,0-28.9C285.3,277,280.2,274.9,274.8,274.9z"/>
			</g>
		</g>
		<g>
			<g>
				<path class="st3" d="M247.5,299.4h-14.4c-3.9,0-7-3.1-7-7s3.1-7,7-7h14.4c3.9,0,7,3.1,7,7S251.3,299.4,247.5,299.4z"/>
			</g>
		</g>
		<g>
			<g>
				<path class="st3" d="M271.8,275c-3.9,0-7-3.1-7-7v-14.4c0-3.9,3.1-7,7-7s7,3.1,7,7V268C278.8,271.9,275.7,275,271.8,275z"/>
			</g>
		</g>
	</g>
</g>
</svg>
